<svg width="50" height="50" viewBox="0 0 50 50" fill="none" xmlns="http://www.w3.org/2000/svg">
<path d="M32.2622 5.99931C30.7133 4.85441 25.9941 1.64867 22.5168 0C22.2881 0 22.1051 0.0457963 22.0136 0.183185C21.9042 0.347347 21.8763 0.549552 21.9678 0.732741C22.6389 1.52654 24.2554 2.97676 24.6215 3.52631C24.8668 3.89465 24.9722 4.73229 24.9875 5.31237V9.43404C26.2381 9.32718 28.9863 9.17758 29.9746 9.43404C30.9629 9.6905 31.7894 10.5179 32.0792 10.8995C33.6043 12.3803 36.7094 15.4334 36.929 15.7997C37.1487 16.1661 37.4171 16.7767 37.5238 17.0362V21.8448H39.903C42.0076 21.8448 43.1057 22.028 43.6547 22.486C44.2038 22.9439 47.498 26.3507 48.6418 27.432C49.4654 28.2105 49.5722 28.1647 49.7857 28.0731C49.9687 27.9946 50.0415 27.7068 49.9229 27.432C49.0536 25.4169 46.7202 21.6342 45.9882 20.4251C44.7958 18.4559 40.8028 13.5697 38.8049 11.6781C36.563 9.55533 34.2449 7.46479 32.2622 5.99931Z" fill="#EFC88C"/>
<path d="M11.7191 5.95352C10.1178 4.9918 4.6274 1.74026 1.15015 0.0915926C0.921371 0.0915926 0.372344 -0.0229245 0.143578 0.320574C-0.0851858 0.664068 0.00631529 1.05331 0.0978244 1.2365L17.7585 19.0055C17.9873 19.2802 18.5363 19.8756 18.6736 20.5625C18.7817 21.1033 18.6889 23.5393 18.7194 25.0506H22.1966C22.4864 25.02 23.4228 25.1147 23.9352 25.3711C24.5758 25.6917 25.2316 26.455 25.6281 26.8366L32.3996 33.6603C32.8113 34.0724 33.9643 35.1166 34.1839 35.8127C34.4035 36.5088 34.3822 37.4766 34.3669 37.9193V40.6671H37.9357C38.256 40.6518 39.1109 40.8202 39.6286 41.0793C40.1776 41.354 40.6351 41.8578 41.0011 42.2242L48.3674 49.6432C48.6419 49.9637 49.2367 50.1011 49.6485 49.918C49.95 49.7838 50.0603 49.2768 49.9688 49.002C49.8315 48.5899 47.0863 43.3691 45.1189 39.9802C44.3638 38.6793 41.962 34.851 39.0795 31.0041C35.7602 26.7594 31.4603 22.2108 29.0596 19.784C24.4385 15.1128 21.6018 13.1435 20.7325 12.4566C19.8632 11.7696 19.7259 11.8154 19.1311 10.8995C18.7743 10.35 18.6736 9.66302 18.6736 9.02187V6.31989L13.412 6.27409C13.046 6.27409 12.6799 6.27409 12.3139 6.1825C11.9479 6.09091 11.8106 6.00847 11.7191 5.95352Z" fill="#EFC88C"/>
<path d="M0.0978151 22.1196C-0.0115086 22.2838 0.00630728 22.486 0.0978164 22.6692C2.08045 24.6995 5.57326 28.2192 6.04574 28.6685L6.10771 28.7274C7.03517 29.6092 8.66076 31.1547 8.97394 31.7368C9.34348 32.4238 9.37047 33.4466 9.38572 33.7519V37.553H12.8172C14.0525 37.553 14.6016 37.5988 15.1049 37.9193C15.6081 38.2399 16.2029 38.8353 16.752 39.339C17.301 39.8428 24.2555 46.8496 24.9418 47.5823C25.6281 48.3151 26.9092 49.5974 27.1837 49.8264C27.504 50.0935 28.0073 50.0553 28.0073 49.5058C28.0073 49.2388 27.5955 48.4983 27.1837 47.7197C26.3601 46.1627 24.6673 43.1859 22.5169 40.2091C20.3665 37.2324 17.3541 33.9808 15.6539 32.3322C14.3728 31.09 12.3492 29.4236 9.43147 27.2488C7.28107 25.6459 2.79726 22.8981 0.69262 22.028C0.509607 21.9822 0.207139 21.9554 0.0978151 22.1196Z" fill="#EFC88C"/>
</svg>
