<svg width="85" height="50" viewBox="0 0 85 50" fill="none" xmlns="http://www.w3.org/2000/svg">
<path d="M46.0147 41.9632C45.6796 41.3468 45.2565 40.7732 44.7462 40.2629C44.2111 39.7285 43.6047 39.2925 42.9545 38.9485C42.1775 38.5372 42.7917 37.6564 42.7917 37.6564C43.5869 36.4464 44.3121 35.2308 44.9116 34.1718L40.8866 30.1501H36.9791C36.2277 30.1501 35.6185 29.5404 35.6185 28.7887C35.6185 28.0374 36.2277 27.4277 36.9791 27.4277H41.4493C41.8111 27.4277 42.1568 27.5711 42.412 27.826L57.1211 42.52C57.3766 42.7755 57.5199 43.1221 57.5199 43.4829V47.9747C57.5199 48.7267 56.9106 49.3352 56.1589 49.3352C55.4066 49.3352 54.7972 48.7269 54.7972 47.9747V44.0471L50.7882 40.0433C49.7062 40.6819 48.4483 41.4649 47.2021 42.326C47.2019 42.3257 46.488 42.8339 46.0147 41.9632Z" fill="#EFC88C"/>
<path d="M39.5816 40.8479C38.3574 40.8479 37.2069 41.3241 36.3407 42.1889C35.476 43.0529 35 44.2022 35 45.424C35 46.6467 35.4762 47.7949 36.3407 48.6587C37.2067 49.5229 38.3574 49.9996 39.5816 49.9999C40.8051 49.9999 41.9558 49.5227 42.8212 48.6587C43.6865 47.7948 44.1632 46.6462 44.1632 45.424C44.1632 44.202 43.6864 43.0527 42.8212 42.1889C41.956 41.3241 40.8051 40.8479 39.5816 40.8479Z" fill="#EFC88C"/>
<path d="M52.395 31.4098C51.7916 32.0126 50.8045 32.0126 50.2011 31.4099L48.6834 29.8937C48.08 29.2911 48.08 28.3048 48.6834 27.7021L74.5927 1.81998C75.1961 1.21734 76.3846 0.66105 77.2338 0.583868L83.5844 0.00638518C84.4337 -0.0707963 85.0653 0.560783 84.9881 1.41012L84.4117 7.74848C84.3345 8.59782 83.7777 9.78569 83.1744 10.3885L57.2634 36.2738C56.6601 36.8764 55.6729 36.8764 55.0696 36.2738L53.5498 34.7555C52.9464 34.1528 52.9464 33.1665 53.5498 32.5637L75.2433 10.8904C75.5627 10.572 75.563 10.0544 75.2438 9.73573C74.9254 9.4165 74.4077 9.4165 74.088 9.73539L52.395 31.4098Z" fill="#EFC88C"/>
<rect x="21.25" y="2.5" width="32.5" height="2.5" rx="1.25" fill="#EFC88C"/>
<rect x="11.25" y="11.25" width="32.5" height="2.5" rx="1.25" fill="#EFC88C"/>
<rect y="20" width="32.5" height="2.5" rx="1.25" fill="#EFC88C"/>
</svg>
