<svg width="58" height="50" viewBox="0 0 58 50" fill="none" xmlns="http://www.w3.org/2000/svg">
<path d="M7.90666 38.1673L8.11555 37.3368L7.50662 36.7347C3.71637 32.987 1.5 28.2894 1.5 23.2143C1.5 11.5124 13.4727 1.5 28.9773 1.5C44.4818 1.5 56.4545 11.5124 56.4545 23.2143C56.4545 34.9161 44.4818 44.9286 28.9773 44.9286C24.8133 44.9286 20.8808 44.1695 17.342 42.857L16.5544 42.5649L15.8938 43.0838C13.4123 45.0333 8.62188 48.0665 2.27265 48.4579C2.76565 47.8646 3.4009 47.0569 4.0721 46.0929C5.48494 44.0639 7.13566 41.2324 7.90666 38.1673ZM1.32551 49.5376C1.32998 49.533 1.33495 49.5278 1.34041 49.522C1.3356 49.5273 1.33067 49.5326 1.32565 49.5378L1.32551 49.5376Z" stroke="#EFC88C" stroke-width="3"/>
</svg>
