<svg width="28" height="40" viewBox="0 0 28 40" fill="none" xmlns="http://www.w3.org/2000/svg">
<path d="M25.4638 25.4387C26.707 23.3585 27.5317 20.7275 27.6917 18.1242C27.7932 16.4533 27.4209 14.6993 26.6147 13.0499C25.3499 10.4589 23.1774 9.00341 21.0788 7.59713C19.5125 6.54781 18.0324 5.55695 16.9861 4.14144L16.7984 3.88911C16.1799 3.05827 15.4814 2.11665 15.3706 1.32581C15.2598 0.52574 14.5336 -0.0435409 13.7397 0.00261703C12.9335 0.0580065 12.3088 0.725758 12.3088 1.53506V28.9529C11.0194 28.1713 9.4316 27.6912 7.69299 27.6912C3.45261 27.6912 0 30.4515 0 33.8456C0 37.2398 3.45261 40 7.69299 40C11.9334 40 15.386 37.2398 15.386 33.8456V15.9117C17.6969 16.7949 21.4788 19.0443 22.5189 24.2971C22.3251 24.5833 22.1404 24.891 21.925 25.1371C21.3619 25.7741 21.4234 26.7465 22.0635 27.3066C22.6974 27.8728 23.6698 27.8051 24.2329 27.1681C24.6453 26.7004 25.0114 26.1526 25.3622 25.5803C25.3992 25.5372 25.4331 25.491 25.4638 25.4387Z" fill="#5191E0"/>
</svg>
