<svg width="50" height="50" viewBox="0 0 50 50" fill="none" xmlns="http://www.w3.org/2000/svg">
<path fill-rule="evenodd" clip-rule="evenodd" d="M25 50C38.8071 50 50 38.8071 50 25C50 11.1929 38.8071 0 25 0C11.1929 0 0 11.1929 0 25C0 38.8071 11.1929 50 25 50ZM19.0051 44.1071C16.2245 42.7551 14.4643 40.4846 13.2908 38.5969C12.1173 36.7091 11.4286 33.7605 11.4286 32.2449C11.4286 30.7397 12.0408 30.7397 13.2908 30.7397H36.7857C38.0357 30.7397 38.648 30.7397 38.648 32.2449C38.648 33.7605 37.9592 36.7091 36.7857 38.5969C35.6122 40.4846 33.852 42.7551 31.0714 44.1071C27.2449 45.8508 22.8288 45.8569 19.0051 44.1071ZM37.3791 12.0388C37.7466 12.451 37.7103 13.0832 37.2981 13.4507L31.5668 18.56L37.2866 23.5038C37.7044 23.8649 37.7503 24.4964 37.3892 24.9143C37.028 25.3321 36.3965 25.3781 35.9787 25.0169L29.3971 19.3281C29.1793 19.1399 29.0532 18.867 29.051 18.5792C29.0488 18.2914 29.1707 18.0166 29.3856 17.8251L35.9672 11.9578C36.3794 11.5903 37.0116 11.6265 37.3791 12.0388ZM12.7529 13.4507C12.3407 13.0832 12.3044 12.451 12.6719 12.0388C13.0394 11.6265 13.6716 11.5903 14.0838 11.9578L20.6654 17.8251C20.8803 18.0166 21.0022 18.2914 21 18.5792C20.9978 18.867 20.8717 19.1399 20.6539 19.3281L14.0723 25.0169C13.6545 25.3781 13.023 25.3321 12.6618 24.9143C12.3007 24.4964 12.3466 23.8649 12.7644 23.5038L18.4842 18.56L12.7529 13.4507Z" fill="#EFC88C"/>
</svg>
